<svg viewBox="0 0 16 16" fill="none" xmlns="http://www.w3.org/2000/svg">
  <g id="SVGRepo_bgCarrier" stroke-width="0"></g>
  <g id="SVGRepo_tracerCarrier" stroke-linecap="round" stroke-linejoin="round"></g>
  <g id="SVGRepo_iconCarrier"> 
    <!-- White background circle -->
    <circle cx="8" cy="8" r="8" fill="white"/>
    <path fill-rule="evenodd" clip-rule="evenodd" d="M8 16C12.4183 16 16 12.4183 16 8C16 3.58172 12.4183 0 8 0C3.58172 0 0 3.58172 0 8C0 12.4183 3.58172 16 8 16ZM7 4H6L4 5.5C4 6.32843 4.67157 7 5.5 7C6.32843 7 7 6.32843 7 5.5V4ZM10 4H9V5.5C9 6.32843 9.67157 7 10.5 7C11.3284 7 12 6.32843 12 5.5L10 4ZM8 11C6.89543 11 6 10.1046 6 9H4C4 11.2091 5.79086 13 8 13C10.2091 13 12 11.2091 12 9H10C10 10.1046 9.10457 11 8 11Z" fill="#000"></path>
  </g>
</svg> 